<svg width="30" height="31" viewBox="0 0 30 31" fill="none" xmlns="http://www.w3.org/2000/svg">
<g id="Icon">
<path id="Icon_2" fill-rule="evenodd" clip-rule="evenodd" d="M15 5.5C9.47 5.5 5 9.97 5 15.5C5 21.03 9.47 25.5 15 25.5C20.53 25.5 25 21.03 25 15.5C25 9.97 20.53 5.5 15 5.5ZM19.3 19.8C18.91 20.19 18.28 20.19 17.89 19.8L15 16.91L12.11 19.8C11.72 20.19 11.09 20.19 10.7 19.8C10.5127 19.6132 10.4075 19.3595 10.4075 19.095C10.4075 18.8305 10.5127 18.5768 10.7 18.39L13.59 15.5L10.7 12.61C10.5127 12.4232 10.4075 12.1695 10.4075 11.905C10.4075 11.6405 10.5127 11.3868 10.7 11.2C11.09 10.81 11.72 10.81 12.11 11.2L15 14.09L17.89 11.2C18.28 10.81 18.91 10.81 19.3 11.2C19.69 11.59 19.69 12.22 19.3 12.61L16.41 15.5L19.3 18.39C19.68 18.77 19.68 19.41 19.3 19.8Z" fill="#C3CAD9"/>
</g>
</svg>
