<svg width="30" height="31" viewBox="0 0 30 31" fill="none" xmlns="http://www.w3.org/2000/svg">
<g id="Social icons/ic_whatsapp">
<path id="Icon" fill-rule="evenodd" clip-rule="evenodd" d="M14.9971 5.5C9.48427 5.5 5 9.98427 5 15.4971C5 17.6834 5.70528 19.711 6.90418 21.3568L5.65817 25.0711L9.50185 23.843C11.0828 24.8891 12.9693 25.4944 15.0029 25.4944C20.5157 25.4944 25 21.0099 25 15.4973C25 9.98444 20.5157 5.50017 15.0029 5.50017H14.9971V5.5ZM12.2054 10.5781C12.0115 10.1138 11.8645 10.0962 11.5707 10.0843C11.4592 10.0771 11.3475 10.0732 11.2357 10.0727C10.8535 10.0727 10.4539 10.1843 10.2129 10.4311C9.91918 10.7308 9.19035 11.4302 9.19035 12.8643C9.19035 14.2984 10.2365 15.6854 10.3775 15.8794C10.5244 16.0732 12.417 19.0588 15.3555 20.2756C17.6535 21.2277 18.3354 21.1395 18.8584 21.0278C19.6224 20.8633 20.5804 20.2988 20.8214 19.6173C21.0624 18.9354 21.0624 18.3535 20.9918 18.2301C20.9213 18.1067 20.7272 18.0364 20.4335 17.8893C20.1397 17.7423 18.7114 17.037 18.441 16.943C18.1765 16.8431 17.9239 16.8785 17.7242 17.1606C17.442 17.5544 17.1658 17.9541 16.9424 18.195C16.7661 18.3831 16.478 18.4066 16.2371 18.3066C15.9139 18.1716 15.0089 17.8539 13.8921 16.8607C13.0281 16.0909 12.4404 15.133 12.27 14.8451C12.0995 14.5513 12.2525 14.3806 12.3875 14.2221C12.5344 14.0398 12.6754 13.9106 12.8224 13.74C12.9693 13.5697 13.0516 13.4815 13.1457 13.2816C13.2457 13.0877 13.175 12.8878 13.1045 12.7408C13.034 12.5939 12.4464 11.1598 12.2054 10.5781Z" fill="#29CC39"/>
</g>
</svg>
