<svg width="30" height="31" viewBox="0 0 30 31" fill="none" xmlns="http://www.w3.org/2000/svg">
<g id="Content/mail">
<path id="Icon" fill-rule="evenodd" clip-rule="evenodd" d="M23 7.5H7C5.9 7.5 5 8.4 5 9.5V21.5C5 22.6 5.9 23.5 7 23.5H23C24.1 23.5 25 22.6 25 21.5V9.5C25 8.4 24.1 7.5 23 7.5ZM22.6 11.75L16.06 15.84C15.41 16.25 14.59 16.25 13.94 15.84L7.4 11.75C7.15 11.59 7 11.32 7 11.03C7 10.36 7.73 9.96 8.3 10.31L15 14.5L21.7 10.31C22.27 9.96 23 10.36 23 11.03C23 11.32 22.85 11.59 22.6 11.75Z" fill="#29CC39"/>
</g>
</svg>
