<svg width="28" height="29" viewBox="0 0 28 29" fill="none" xmlns="http://www.w3.org/2000/svg">
<g id="Icon">
<path id="Icon_2" fill-rule="evenodd" clip-rule="evenodd" d="M8.39999 12.6333C7.37333 12.6333 6.53333 13.4733 6.53333 14.5C6.53333 15.5267 7.37333 16.3667 8.39999 16.3667C9.42666 16.3667 10.2667 15.5267 10.2667 14.5C10.2667 13.4733 9.42666 12.6333 8.39999 12.6333ZM19.6 12.6333C18.5733 12.6333 17.7333 13.4733 17.7333 14.5C17.7333 15.5267 18.5733 16.3667 19.6 16.3667C20.6267 16.3667 21.4667 15.5267 21.4667 14.5C21.4667 13.4733 20.6267 12.6333 19.6 12.6333ZM14 12.6333C12.9733 12.6333 12.1333 13.4733 12.1333 14.5C12.1333 15.5267 12.9733 16.3667 14 16.3667C15.0267 16.3667 15.8667 15.5267 15.8667 14.5C15.8667 13.4733 15.0267 12.6333 14 12.6333Z" fill="#C3CAD9"/>
</g>
</svg>
